<?xml version="1.0" encoding="utf-8"?>
<!-- Generator: Adobe Illustrator 19.0.0, SVG Export Plug-In . SVG Version: 6.00 Build 0)  -->
<svg version="1.0" id="Layer_1" xmlns="http://www.w3.org/2000/svg" xmlns:xlink="http://www.w3.org/1999/xlink" x="0px" y="0px"
	 viewBox="0 0 400 400" style="enable-background:new 0 0 400 400;" xml:space="preserve">
<style type="text/css">
	.st0{fill:#6B8FB5;}
</style>
<g id="XMLID_8_">
	<path id="XMLID_15_" class="st0" d="M302.9,275.4c0,11.7-9.5,21.1-21.1,21.1c-11.7,0-21.1-9.5-21.1-21.1c0-11.6,9.5-21.1,21.1-21.1
		S302.9,263.8,302.9,275.4"/>
	<path id="XMLID_14_" class="st0" d="M140.5,275.4c0,11.7-9.5,21.1-21.1,21.1c-11.7,0-21.1-9.5-21.1-21.1c0-11.6,9.5-21.1,21.1-21.1
		C131,254.3,140.5,263.8,140.5,275.4"/>
	<path id="XMLID_13_" class="st0" d="M221.1,87.9c0,11.7-9.5,21.1-21.1,21.1c-11.7,0-21.1-9.4-21.1-21.1c0-11.7,9.5-21.1,21.1-21.1
		C211.7,66.8,221.1,76.2,221.1,87.9"/>
	<path id="XMLID_10_" class="st0" d="M391.3,200c0,105.7-85.6,191.3-191.3,191.3S8.7,305.6,8.7,200S94.4,8.7,200,8.7
		C305.7,8.7,391.3,94.4,391.3,200 M239.2,258.4V275c0,22.9,18.5,41.5,41.4,41.5S322,297.9,322,275c0-22.8-18.5-41.4-41.4-41.4h-30.1
		l-26.1-111.6l0,0c9.8-7.6,16.2-19.5,16.2-32.9c0-22.9-18.5-41.4-41.4-41.4c-22.8,0-41.4,18.6-41.4,41.4c0,14.4,7.4,27,18.4,34.4
		l-26,110.7h-30.5c-22.9,0-41.4,18.5-41.4,41.4S96.7,317,119.6,317s41.4-18.6,41.4-41.4v-17.3L239.2,258.4L239.2,258.4z"/>
	<path id="XMLID_9_" class="st0" d="M204.3,129.9l24.6,105h-57.7l24.5-104.8c1.4,0.1,2.6,0.1,4,0.1
		C201.2,130.1,202.7,130.1,204.3,129.9"/>
</g>
</svg>
